<?xml version="1.0" standalone="no"?>
<!DOCTYPE svg PUBLIC "-//W3C//DTD SVG 20010904//EN"
 "http://www.w3.org/TR/2001/REC-SVG-20010904/DTD/svg10.dtd">
<svg version="1.0" xmlns="http://www.w3.org/2000/svg"
 width="257.000000pt" height="257.000000pt" viewBox="0 0 257.000000 257.000000"
 preserveAspectRatio="xMidYMid meet">
<metadata>
Created by potrace 1.14, written by Peter Selinger 2001-2017
</metadata>
<g transform="translate(0.000000,257.000000) scale(0.100000,-0.100000)"
fill="#000000" stroke="none">
<path d="M1243 2556 c-13 -7 -20 -16 -16 -19 3 -4 1 -7 -5 -7 -7 0 -12 -8 -12
-18 0 -26 -10 -33 -31 -21 -16 8 -21 6 -28 -13 -5 -13 -6 -27 -4 -31 3 -5 -4
-4 -17 3 -12 6 -27 10 -33 7 -7 -2 -16 -5 -21 -5 -5 0 -12 -6 -17 -13 -4 -7
-26 -12 -51 -11 -31 0 -37 -2 -23 -7 11 -5 30 -7 43 -6 21 2 21 1 7 -15 -18
-20 -21 -55 -2 -43 6 4 4 -5 -6 -20 -11 -18 -13 -27 -6 -27 7 0 9 -3 6 -7 -4
-3 -1 -13 6 -21 10 -13 9 -14 -1 -8 -7 4 -15 0 -19 -11 -4 -10 -15 -27 -25
-37 -10 -11 -15 -22 -10 -25 4 -3 6 -17 4 -31 -2 -14 -4 -40 -4 -57 -1 -18 -5
-33 -10 -33 -4 0 -8 -6 -8 -14 0 -8 -13 -17 -30 -21 -16 -4 -30 -11 -30 -16 0
-6 -4 -7 -10 -4 -5 3 -10 3 -11 -2 0 -4 -2 -16 -4 -25 -2 -9 3 -22 11 -29 18
-15 18 -38 -1 -45 -8 -4 -15 -15 -15 -25 0 -12 -9 -21 -25 -25 -25 -6 -33 -28
-15 -39 13 -8 8 -48 -8 -67 -6 -8 -9 -18 -5 -21 3 -4 -5 -7 -20 -7 -19 0 -25
-5 -24 -19 0 -11 4 -18 7 -16 3 2 12 -1 20 -6 12 -8 12 -12 3 -16 -7 -2 -13
-13 -13 -24 0 -11 -7 -22 -16 -26 -11 -4 -14 -15 -11 -40 5 -31 2 -36 -23 -44
-22 -8 -29 -18 -34 -51 -4 -25 -17 -51 -31 -64 -14 -13 -25 -34 -25 -49 0 -14
-5 -25 -10 -25 -6 0 -22 -8 -37 -17 -14 -10 -33 -18 -42 -20 -8 -1 -32 -20
-53 -43 -32 -34 -36 -44 -28 -61 8 -13 8 -19 0 -19 -7 0 -8 -6 -1 -19 6 -10 8
-21 5 -24 -3 -3 4 -8 15 -12 28 -9 26 -21 -4 -29 -14 -4 -25 -12 -26 -19 0 -6
-3 -21 -5 -32 -3 -11 -6 -26 -6 -32 -1 -7 -5 -13 -10 -13 -4 0 -7 -3 -6 -7 6
-21 -50 -93 -72 -93 -5 0 -10 -6 -10 -12 0 -10 -2 -10 -8 -1 -6 9 -15 6 -35
-11 -15 -13 -27 -28 -27 -35 0 -6 -5 -11 -11 -11 -5 0 -8 -4 -5 -9 3 -5 -1
-14 -9 -21 -8 -7 -15 -19 -15 -26 0 -8 -4 -14 -10 -14 -5 0 -12 -16 -16 -35
-3 -19 -9 -34 -13 -33 -20 2 -27 -5 -29 -33 -2 -26 0 -30 11 -21 16 14 28 6
20 -13 -2 -8 -11 -11 -18 -9 -23 9 -29 -18 -8 -36 22 -17 44 -68 24 -56 -6 4
-11 2 -11 -3 0 -6 -9 -11 -20 -11 -45 0 -4 -51 47 -59 20 -3 36 -10 35 -16 0
-5 4 -16 10 -23 6 -6 6 -12 2 -12 -5 0 -14 -10 -19 -23 -6 -12 -16 -22 -23
-22 -8 0 -20 -9 -28 -19 -8 -11 -14 -16 -14 -10 0 5 -5 2 -10 -6 -13 -20 -13
-60 0 -60 6 0 10 -7 10 -15 0 -8 9 -20 20 -27 20 -13 28 -38 11 -38 -17 0 -22
-34 -6 -42 8 -5 15 -19 15 -32 0 -13 7 -29 15 -36 8 -7 12 -17 8 -23 -4 -6 0
-8 10 -4 9 3 22 1 29 -6 8 -7 20 -13 28 -15 8 -2 16 -8 18 -13 2 -5 10 -9 18
-9 8 0 14 -4 14 -9 0 -5 18 -9 39 -8 22 1 38 4 35 6 -8 8 72 29 98 26 13 -2
29 4 36 11 10 11 10 14 0 14 -9 0 -9 3 0 12 10 10 15 10 23 -2 7 -11 8 -7 3
13 -4 18 -2 27 6 27 7 0 10 -7 6 -15 -4 -11 1 -15 19 -15 15 0 26 7 30 20 3
11 14 20 24 20 9 0 22 5 29 12 16 16 16 62 0 52 -7 -4 -8 -3 -4 4 4 7 16 12
27 12 23 0 25 15 4 24 -8 3 -15 1 -15 -3 0 -5 -9 -7 -20 -4 -15 4 -17 9 -10
23 7 13 6 23 -4 33 -15 15 -11 57 5 57 5 0 9 14 9 31 0 19 -4 28 -11 23 -7 -4
-6 3 2 17 7 13 12 28 11 32 -1 5 2 6 7 3 5 -4 12 3 16 14 3 11 10 20 15 20 16
0 20 33 6 61 -8 16 -10 27 -5 24 8 -5 14 24 10 47 0 5 6 8 15 8 9 0 14 6 12
12 -3 7 2 19 9 27 8 8 11 17 6 20 -15 11 -9 32 15 50 22 16 23 19 7 34 -9 10
-21 14 -27 11 -6 -4 -8 7 -6 27 2 19 8 34 13 34 18 0 36 16 32 28 -2 6 7 23
20 37 13 14 23 30 23 36 0 7 7 14 15 18 8 3 15 12 15 21 0 8 3 15 8 15 4 0 23
25 41 55 19 30 38 55 42 55 4 0 10 14 14 30 4 17 10 28 15 25 4 -3 11 10 14
28 4 19 23 51 46 75 26 26 40 51 40 67 0 15 4 24 10 20 5 -3 10 3 10 14 0 12
7 21 15 21 8 0 15 5 15 10 0 6 7 10 15 10 22 0 18 23 -5 38 -13 8 -20 8 -20 1
0 -5 -5 -7 -10 -4 -8 5 -7 11 1 21 8 10 9 22 3 37 -12 26 -7 70 7 62 5 -4 9
18 9 49 0 31 4 56 9 56 6 0 22 11 37 25 34 32 44 32 44 0 0 -14 4 -25 8 -25 5
0 15 -11 22 -25 7 -14 21 -25 30 -25 20 0 43 24 33 33 -3 4 -1 7 5 7 6 0 10 9
9 20 -1 11 -5 20 -10 20 -4 0 -5 5 -2 10 3 6 2 10 -4 10 -5 0 -12 9 -16 20 -3
11 -12 19 -18 17 -7 -1 -11 4 -10 11 2 6 -2 12 -7 12 -12 0 -10 59 2 66 4 3 8
-2 8 -10 0 -8 6 -21 13 -28 6 -7 21 -30 32 -50 11 -21 25 -38 32 -38 16 0 17
-15 3 -40 -7 -14 -6 -23 6 -34 8 -9 12 -16 8 -16 -3 0 -1 -6 5 -13 6 -8 8 -17
4 -20 -3 -4 -11 0 -17 7 -8 10 -18 12 -33 5 -26 -10 -28 -18 -10 -43 13 -18
15 -18 40 -1 16 10 27 13 27 6 0 -6 -5 -11 -11 -11 -6 0 -9 -7 -5 -15 3 -10
-1 -15 -12 -15 -12 0 -13 -3 -5 -8 7 -4 9 -13 4 -21 -9 -13 8 -61 22 -61 4 0
7 -18 7 -39 0 -22 5 -43 10 -46 6 -4 8 -10 5 -15 -3 -4 2 -10 10 -14 8 -3 15
-12 15 -21 0 -26 48 -38 76 -20 24 15 33 45 14 45 -5 0 -10 5 -10 11 0 6 -6
17 -14 25 -13 13 -11 54 3 54 3 0 15 -11 25 -25 10 -13 22 -22 27 -19 5 3 9 0
9 -5 0 -6 7 -11 15 -11 17 0 20 -16 5 -25 -16 -10 -4 -67 18 -85 23 -18 71
-97 53 -86 -7 5 -27 10 -44 11 -18 2 -42 7 -54 10 -17 6 -23 3 -23 -9 0 -9 4
-16 9 -16 5 0 8 -11 6 -25 -1 -14 0 -23 3 -21 6 7 42 -39 42 -53 0 -6 5 -11
10 -11 6 0 9 -12 9 -27 -1 -16 -1 -34 0 -40 1 -16 41 -17 41 -2 0 5 5 7 10 4
6 -3 10 3 10 14 0 11 -5 23 -11 26 -6 4 -8 13 -5 20 2 7 -2 22 -9 33 -15 20
-11 32 12 32 7 0 13 -6 13 -14 0 -8 9 -18 20 -21 11 -3 21 -11 21 -16 1 -5 3
-13 4 -19 1 -5 3 -14 4 -20 0 -5 8 -7 16 -4 9 4 18 -1 21 -10 11 -28 -5 -31
-30 -7 l-24 23 -11 -21 c-7 -12 -9 -21 -5 -21 3 0 1 -7 -6 -15 -10 -11 -9 -18
3 -30 17 -17 31 -20 22 -5 -4 6 5 10 20 10 18 0 29 -6 32 -20 3 -11 10 -20 15
-20 5 0 6 -5 3 -10 -3 -6 -1 -10 5 -10 6 0 8 -5 5 -10 -3 -6 0 -10 8 -10 16 0
28 -31 22 -59 -4 -20 22 -25 43 -8 8 6 12 6 12 -1 0 -5 -6 -12 -13 -15 -9 -3
-12 -17 -9 -41 2 -20 8 -34 12 -31 5 3 9 -3 9 -12 0 -73 4 -92 15 -86 6 4 6 0
-2 -9 -7 -9 -9 -18 -5 -20 16 -6 43 -74 39 -95 -3 -13 -1 -25 5 -28 5 -4 9
-15 9 -26 0 -12 7 -19 20 -19 15 0 19 -5 16 -22 -2 -13 1 -31 6 -42 7 -13 7
-16 -1 -12 -17 11 -13 -20 4 -34 8 -7 15 -23 15 -36 0 -13 5 -24 10 -24 6 0
10 -7 10 -15 0 -9 6 -18 13 -21 8 -3 20 -27 27 -54 8 -31 19 -50 28 -50 8 0
20 -7 26 -15 6 -8 25 -16 43 -18 17 -2 38 -9 46 -15 8 -7 17 -9 20 -5 4 3 7 1
7 -5 0 -9 6 -9 25 0 14 6 25 14 25 18 0 4 10 11 23 15 13 4 17 8 10 12 -15 5
-18 53 -4 53 5 0 11 11 13 25 3 14 1 25 -3 25 -5 0 -3 11 3 25 6 14 17 25 24
25 6 0 14 16 16 37 5 44 -27 113 -60 129 -26 13 -42 27 -27 24 6 -1 19 -2 30
-1 17 1 18 3 5 11 -12 8 -12 10 -1 10 10 0 8 6 -7 18 -11 10 -22 32 -25 50 -5
29 -27 62 -42 62 -10 0 -31 24 -29 35 0 6 4 18 8 28 9 18 -17 67 -35 67 -6 0
-8 4 -4 9 3 5 -6 21 -20 36 -20 19 -24 31 -19 48 9 30 10 30 31 18 10 -6 14
-11 10 -11 -5 0 -1 -7 8 -16 12 -13 19 -14 28 -5 8 8 8 11 0 11 -7 0 -14 9
-18 19 -4 12 -12 18 -21 14 -10 -4 -14 3 -14 26 0 18 -5 31 -12 31 -9 0 -8 4
2 10 13 9 13 11 0 19 -8 6 -11 13 -8 17 4 3 -4 16 -18 29 -13 12 -24 28 -24
35 0 7 -6 10 -13 7 -7 -3 -14 3 -15 12 -3 31 -8 46 -20 69 -7 12 -10 28 -6 34
4 7 3 8 -4 4 -7 -4 -12 -3 -12 2 0 4 -13 23 -30 42 -16 18 -28 36 -25 38 2 3
-5 18 -17 35 -15 21 -18 32 -10 35 16 5 15 44 0 61 -10 11 -10 13 0 7 6 -4 12
-4 12 1 0 13 -17 35 -26 34 -5 -1 -9 20 -9 45 0 33 -5 48 -18 55 -10 6 -15 15
-11 20 3 6 -3 17 -15 25 -12 9 -19 19 -16 23 2 5 -4 19 -15 31 -22 26 -26 46
-9 52 7 2 1 16 -13 33 -33 41 -61 99 -49 103 14 5 2 32 -14 32 -8 0 -12 8 -10
20 2 11 1 20 -3 20 -4 0 -8 9 -9 19 -2 21 -37 61 -53 61 -5 0 -10 5 -10 10 0
6 5 10 11 10 5 0 7 5 4 10 -3 6 0 10 7 10 9 1 7 5 -4 14 -10 7 -15 16 -11 19
3 4 -1 7 -10 7 -10 0 -17 8 -17 19 0 10 -7 22 -16 25 -8 3 -12 10 -9 16 4 6
11 8 16 5 5 -4 9 -2 9 4 0 5 -5 13 -10 16 -7 4 -6 13 1 26 7 15 7 24 -1 34 -7
8 -9 18 -6 24 3 5 -1 12 -10 15 -8 3 -13 10 -9 15 3 5 1 12 -4 15 -5 4 -8 24
-7 46 2 23 -1 43 -6 46 -4 3 -5 11 -1 17 14 22 9 67 -9 87 -10 10 -18 24 -18
30 0 5 -7 10 -15 10 -8 0 -15 7 -15 15 0 8 -7 15 -15 15 -9 0 -18 6 -21 14 -7
17 -59 40 -72 32 -6 -3 -12 1 -15 8 -3 8 -1 16 5 18 7 3 8 10 3 18 -6 10 -10
8 -17 -10 l-8 -23 -23 21 c-18 17 -26 19 -41 10 -15 -8 -21 -8 -24 0 -2 6 -10
8 -18 5 -8 -3 -14 0 -14 6 0 14 -49 12 -77 -3z"/>
<path d="M311 1024 c-1 -6 -11 -11 -23 -10 -31 1 -37 -39 -10 -64 24 -23 50
-10 47 25 -2 14 1 25 6 25 5 0 9 5 9 11 0 5 -4 8 -9 5 -5 -4 -12 0 -14 6 -3 8
-6 9 -6 2z"/>
<path d="M1786 795 c-20 -15 -12 -20 23 -16 8 2 10 -2 5 -10 -4 -8 -3 -10 4
-5 16 10 15 46 0 46 -7 0 -22 -7 -32 -15z"/>
<path d="M1797 701 c4 -16 8 -17 18 -8 9 9 10 14 1 19 -19 13 -24 9 -19 -11z"/>
<path d="M732 379 c2 -6 8 -10 13 -10 5 0 11 4 13 10 2 6 -4 11 -13 11 -9 0
-15 -5 -13 -11z"/>
<path d="M762 331 c-11 -7 -11 -9 2 -14 10 -4 16 -1 16 8 0 17 -1 17 -18 6z"/>
<path d="M790 270 c-6 -11 -14 -19 -18 -17 -4 1 -8 -2 -10 -7 -1 -6 4 -11 12
-12 8 -1 17 7 19 18 3 11 10 17 16 13 6 -3 11 -2 11 4 0 20 -19 21 -30 1z"/>
<path d="M628 48 c5 -21 13 -23 31 -5 11 10 12 9 6 -3 -6 -12 -5 -13 5 -3 17
15 10 24 -23 27 -19 2 -23 -1 -19 -16z"/>
</g>
</svg>
